<mxfile host="Electron" agent="Mozilla/5.0 (Windows NT 10.0; Win64; x64) AppleWebKit/537.36 (KHTML, like Gecko) draw.io/26.1.1 Chrome/132.0.6834.210 Electron/34.3.3 Safari/537.36" version="26.1.1">
  <diagram name="Pagina-1" id="3X01zH0MSa9MLvh9rQfr">
    <mxGraphModel dx="1034" dy="511" grid="1" gridSize="10" guides="1" tooltips="1" connect="1" arrows="1" fold="1" page="1" pageScale="1" pageWidth="827" pageHeight="1169" math="0" shadow="0">
      <root>
        <mxCell id="0" />
        <mxCell id="1" parent="0" />
        <mxCell id="bIl7EeEL8q_whj3lT6VY-1" value="Utente" style="shape=umlActor;verticalLabelPosition=bottom;verticalAlign=top;html=1;" vertex="1" parent="1">
          <mxGeometry x="140" y="125" width="30" height="60" as="geometry" />
        </mxCell>
        <mxCell id="bIl7EeEL8q_whj3lT6VY-3" value="Amministratore" style="shape=umlActor;verticalLabelPosition=bottom;verticalAlign=top;html=1;" vertex="1" parent="1">
          <mxGeometry x="140" y="355" width="30" height="60" as="geometry" />
        </mxCell>
        <mxCell id="bIl7EeEL8q_whj3lT6VY-7" value="" style="endArrow=block;endSize=16;endFill=0;html=1;rounded=0;" edge="1" parent="1">
          <mxGeometry width="160" relative="1" as="geometry">
            <mxPoint x="155" y="345" as="sourcePoint" />
            <mxPoint x="155" y="215" as="targetPoint" />
          </mxGeometry>
        </mxCell>
        <mxCell id="bIl7EeEL8q_whj3lT6VY-8" value="Accedi alla Piattaforma" style="ellipse;whiteSpace=wrap;html=1;" vertex="1" parent="1">
          <mxGeometry x="340" y="120" width="140" height="70" as="geometry" />
        </mxCell>
        <mxCell id="bIl7EeEL8q_whj3lT6VY-10" value="" style="endArrow=none;html=1;edgeStyle=orthogonalEdgeStyle;rounded=0;" edge="1" parent="1" source="bIl7EeEL8q_whj3lT6VY-1" target="bIl7EeEL8q_whj3lT6VY-8">
          <mxGeometry relative="1" as="geometry">
            <mxPoint x="320" y="255" as="sourcePoint" />
            <mxPoint x="480" y="255" as="targetPoint" />
          </mxGeometry>
        </mxCell>
        <mxCell id="bIl7EeEL8q_whj3lT6VY-13" value="Crea Nuova Utenza" style="ellipse;whiteSpace=wrap;html=1;" vertex="1" parent="1">
          <mxGeometry x="340" y="350" width="140" height="70" as="geometry" />
        </mxCell>
        <mxCell id="bIl7EeEL8q_whj3lT6VY-14" value="" style="endArrow=none;html=1;edgeStyle=orthogonalEdgeStyle;rounded=0;" edge="1" parent="1" target="bIl7EeEL8q_whj3lT6VY-13" source="bIl7EeEL8q_whj3lT6VY-3">
          <mxGeometry relative="1" as="geometry">
            <mxPoint x="170" y="385" as="sourcePoint" />
            <mxPoint x="480" y="485" as="targetPoint" />
          </mxGeometry>
        </mxCell>
        <mxCell id="bIl7EeEL8q_whj3lT6VY-15" value="Persona Non Registrata" style="shape=umlActor;verticalLabelPosition=bottom;verticalAlign=top;html=1;" vertex="1" parent="1">
          <mxGeometry x="620" y="355" width="30" height="60" as="geometry" />
        </mxCell>
        <mxCell id="bIl7EeEL8q_whj3lT6VY-22" value="" style="endArrow=none;html=1;edgeStyle=orthogonalEdgeStyle;rounded=0;" edge="1" parent="1" source="bIl7EeEL8q_whj3lT6VY-13" target="bIl7EeEL8q_whj3lT6VY-15">
          <mxGeometry relative="1" as="geometry">
            <mxPoint x="180" y="395" as="sourcePoint" />
            <mxPoint x="350" y="395" as="targetPoint" />
          </mxGeometry>
        </mxCell>
      </root>
    </mxGraphModel>
  </diagram>
</mxfile>
